#N canvas 960 0 942 960 10;
#X declare -lib mrpeach;
#X declare -lib mrpeach;
#X floatatom 448 376 3 0 0 0 - - -;
#X floatatom 475 376 3 0 0 0 - - -;
#X floatatom 502 376 3 0 0 0 - - -;
#X floatatom 529 376 3 0 0 0 - - -;
#X floatatom 556 377 5 0 0 0 - - -;
#X obj 448 350 unpack 0 0 0 0 0;
#X floatatom 325 415 9 0 0 0 - - -;
#X obj 510 324 tgl 15 0 empty empty empty 17 7 0 10 -4034 -1 -1 0 1
;
#X floatatom 387 323 9 0 0 0 - - -;
#X text 24 162 get status on right outlet:;
#X text 220 297 bytes received:;
#X text 226 320 total bytes received:;
#X text 405 375 from:;
#X text 327 150 Specify a multicast address (from 224.0.0.0 to 239.255.255.255)
to use multicasting;
#X text 70 110 Creation arguments: port number to listen on (required)
;
#X obj 208 366 spigot;
#X obj 268 342 tgl 15 0 empty empty enable_print: -77 8 0 10 -4034
-1 -1 0 1;
#X obj 208 391 print received;
#X obj 327 264 route received total from multicast;
#X text 209 128 IP address to listen on (optional);
#X text 310 199 change port to listen on;
#X text 22 75 [udpreceive] receives datagrams over a udp connection
and outputs them as raw bytes.;
#X obj 1096 139 bng 15 250 50 0 empty empty empty 17 7 0 10 -262144
-1 -1;
#X obj 1088 374 dac~;
#X obj 1096 277 readsf~;
#X obj 1096 180 t b b;
#X obj 1172 293 env~;
#X floatatom 1172 334 5 0 0 0 - - -;
#X msg 209 175 status;
#X msg 220 214 port 1111;
#X obj 209 245 udpreceive 1111;
#X obj 38 449 import mrpeach;
#X obj 1445 532 bng 15 250 50 0 empty empty empty 17 7 0 10 -262144
-1 -1;
#X obj 1437 784 dac~;
#X obj 1445 670 readsf~;
#X obj 1445 573 t b b;
#X obj 1521 686 env~;
#X floatatom 1521 727 5 0 0 0 - - -;
#X msg 1562 609 open 77695.wav;
#X obj 210 776 import mrpeach;
#X floatatom 451 722 3 0 0 0 - - -;
#X floatatom 478 722 3 0 0 0 - - -;
#X floatatom 505 722 3 0 0 0 - - -;
#X floatatom 532 722 3 0 0 0 - - -;
#X floatatom 559 723 5 0 0 0 - - -;
#X obj 451 696 unpack 0 0 0 0 0;
#X floatatom 330 643 9 0 0 0 - - -;
#X obj 513 670 tgl 15 0 empty empty empty 17 7 0 10 -4034 -1 -1 0 1
;
#X floatatom 390 669 9 0 0 0 - - -;
#X text 223 643 bytes received:;
#X text 238 667 total bytes received:;
#X text 408 721 from:;
#X obj 211 712 spigot;
#X obj 271 688 tgl 15 0 empty empty enable_print: -77 8 0 10 -4034
-1 -1 0 1;
#X obj 211 737 print received;
#X obj 330 610 route received total from multicast;
#X msg 211 523 status;
#X msg 222 562 port 3333;
#X obj 211 593 udpreceive 3333;
#X msg 1549 653 0;
#X msg 1200 260 0;
#X msg 1096 227 start;
#X msg 1445 621 start;
#X text 1086 103 if 3 or above;
#X text 1390 533 if <3;
#X obj 951 557 bng 15 250 50 0 empty empty empty 17 7 0 10 -262144
-1 -1;
#X floatatom 1008 637 5 0 0 0 - - -;
#X obj 1008 604 + 1;
#X obj 951 605 i;
#X msg 1014 567 0;
#X obj 1096 653 moses 4;
#X obj 996 514 moses 4;
#X obj 1533 813 vu 15 120 empty empty -1 -8 0 10 -66577 -1 0 0;
#X obj 1532 769 pvu~;
#X obj 1166 420 vu 15 120 empty empty -1 -8 0 10 -66577 -1 1 0;
#X obj 1165 369 pvu~;
#X obj 631 525 vsl 15 128 0 100 0 0 empty empty empty 0 -9 0 10 -262144
-1 -1 1216 1;
#X floatatom 680 656 5 0 0 0 - - -;
#X floatatom 446 474 5 0 0 0 - - -;
#X obj 391 457 /;
#X msg 433 424 1000;
#X obj 359 342 bng 15 250 50 0 empty empty empty 17 7 0 10 -262144
-1 -1;
#X floatatom 555 507 5 0 0 0 - - -;
#X obj 363 380 t b b;
#X obj 260 436 1000;
#X obj 1446 721 lop~ 0.5;
#X obj 494 490 * 10;
#X obj 1097 323 lop~ 0.5;
#X msg 1213 217 open seagulls3.wav;
#X connect 5 0 0 0;
#X connect 5 1 1 0;
#X connect 5 2 2 0;
#X connect 5 3 3 0;
#X connect 5 4 4 0;
#X connect 6 0 79 1;
#X connect 15 0 17 0;
#X connect 16 0 15 1;
#X connect 18 0 6 0;
#X connect 18 0 81 0;
#X connect 18 1 8 0;
#X connect 18 2 5 0;
#X connect 18 3 7 0;
#X connect 22 0 25 0;
#X connect 24 0 26 0;
#X connect 24 0 87 0;
#X connect 24 1 22 0;
#X connect 25 0 61 0;
#X connect 25 1 88 0;
#X connect 26 0 27 0;
#X connect 28 0 30 0;
#X connect 29 0 30 0;
#X connect 30 0 15 0;
#X connect 30 1 18 0;
#X connect 32 0 35 0;
#X connect 34 0 36 0;
#X connect 34 0 85 0;
#X connect 34 1 32 0;
#X connect 35 0 62 0;
#X connect 35 1 38 0;
#X connect 36 0 37 0;
#X connect 38 0 34 0;
#X connect 45 0 40 0;
#X connect 45 1 41 0;
#X connect 45 2 42 0;
#X connect 45 3 43 0;
#X connect 45 4 44 0;
#X connect 46 0 71 0;
#X connect 52 0 54 0;
#X connect 53 0 52 1;
#X connect 55 0 46 0;
#X connect 55 1 48 0;
#X connect 55 2 45 0;
#X connect 55 3 47 0;
#X connect 56 0 58 0;
#X connect 57 0 58 0;
#X connect 58 0 52 0;
#X connect 58 1 55 0;
#X connect 59 0 34 0;
#X connect 60 0 24 0;
#X connect 61 0 24 0;
#X connect 62 0 34 0;
#X connect 65 0 68 0;
#X connect 66 0 70 0;
#X connect 67 0 68 1;
#X connect 67 0 66 0;
#X connect 68 0 67 0;
#X connect 69 0 68 1;
#X connect 70 0 22 0;
#X connect 71 1 65 0;
#X connect 71 1 59 0;
#X connect 73 0 72 0;
#X connect 75 0 74 0;
#X connect 76 0 77 0;
#X connect 76 0 85 1;
#X connect 76 0 87 1;
#X connect 78 0 86 0;
#X connect 79 0 78 0;
#X connect 80 0 79 0;
#X connect 81 0 83 0;
#X connect 82 0 76 0;
#X connect 83 0 80 0;
#X connect 85 0 33 0;
#X connect 85 0 33 1;
#X connect 85 0 73 0;
#X connect 86 0 82 0;
#X connect 87 0 23 0;
#X connect 87 0 23 1;
#X connect 87 0 75 0;
#X connect 88 0 24 0;
