#N canvas 0 0 1916 978 10;
#X declare -lib mrpeach;
#X obj 913 920 dac~;
#X obj 40 739 import mrpeach;
#X floatatom 281 685 3 0 0 0 - - -;
#X floatatom 308 685 3 0 0 0 - - -;
#X floatatom 335 685 3 0 0 0 - - -;
#X floatatom 362 685 3 0 0 0 - - -;
#X floatatom 389 686 5 0 0 0 - - -;
#X obj 281 659 unpack 0 0 0 0 0;
#X floatatom 160 606 9 0 0 0 - - -;
#X obj 343 633 tgl 15 0 empty empty empty 17 7 0 10 -4034 -1 -1 0 1
;
#X floatatom 220 632 9 0 0 0 - - -;
#X text 53 606 bytes received:;
#X text 68 630 total bytes received:;
#X text 238 684 from:;
#X obj 41 675 spigot;
#X obj 101 651 tgl 15 0 empty empty enable_print: -77 8 0 10 -4034
-1 -1 0 1;
#X obj 41 700 print received;
#X obj 160 573 route received total from multicast;
#X msg 41 486 status;
#X obj 913 687 bng 15 250 50 0 empty empty empty 17 7 0 10 -262144
-1 -1;
#X obj 913 825 readsf~;
#X msg 1017 808 stop;
#X obj 913 728 t b b;
#X obj 989 841 env~;
#X floatatom 989 882 5 0 0 0 - - -;
#X obj 912 876 *~ 0;
#X obj 920 419 bng 15 250 50 0 empty empty empty 17 7 0 10 -262144
-1 -1;
#X obj 920 553 readsf~;
#X msg 920 504 start;
#X msg 1024 536 stop;
#X obj 920 460 t b b;
#X obj 996 569 env~;
#X floatatom 996 610 5 0 0 0 - - -;
#X obj 919 604 *~ 0;
#X msg 913 776 start;
#X obj 742 589 hsl 128 15 0 1 0 0 empty empty Volume_slider(0-1) -2
-8 0 10 -232576 -1 -1 0 1;
#X obj 677 863 hsl 128 15 0 1 0 0 empty empty Volume_slider(0-1) -2
-8 0 10 -232576 -1 -1 0 1;
#X obj 898 649 dac~;
#X obj 506 739 == 1;
#X obj 564 478 == 2;
#X obj 511 229 == 3;
#X obj 927 152 bng 15 250 50 0 empty empty empty 17 7 0 10 -262144
-1 -1;
#X obj 927 286 readsf~;
#X msg 927 237 start;
#X msg 1031 269 stop;
#X obj 927 193 t b b;
#X obj 1003 302 env~;
#X floatatom 1003 343 5 0 0 0 - - -;
#X obj 926 337 *~ 0;
#X obj 731 322 hsl 128 15 0 1 0 0 empty empty Volume_slider(0-1) -2
-8 0 10 -232576 -1 -1 0 1;
#X obj 918 384 dac~;
#X floatatom 587 246 5 0 0 0 - - -;
#X floatatom 650 306 5 0 0 0 - - -;
#X obj 574 289 spigot;
#X floatatom 654 495 5 0 0 0 - - -;
#X floatatom 642 573 5 0 0 0 - - -;
#X obj 642 540 spigot;
#X floatatom 584 756 5 0 0 0 - - -;
#X floatatom 573 847 5 0 0 0 - - -;
#X obj 573 809 spigot;
#X text 510 199 is it 3;
#X text 583 220 if true = 1 \, if false = 0;
#X text 729 266 takes input. If 1 play sound if 0 no sound;
#X text 549 392 1 = player is right of goal. Play left speaker 2 =
player is left of goal. Play right speaker 3 = player is same position
as goal. Play both speakers;
#X msg 52 525 port 3333;
#X obj 41 556 udpreceive 3333;
#X obj 2124 897 dac~;
#X floatatom 1600 663 5 0 0 0 - - -;
#X obj 2124 664 bng 15 250 50 0 empty empty empty 17 7 0 10 -262144
-1 -1;
#X obj 2124 802 readsf~;
#X msg 2228 785 stop;
#X obj 2124 705 t b b;
#X obj 2200 818 env~;
#X floatatom 2200 859 5 0 0 0 - - -;
#X obj 2123 853 *~ 0;
#X obj 2131 396 bng 15 250 50 0 empty empty empty 17 7 0 10 -262144
-1 -1;
#X obj 2131 530 readsf~;
#X msg 2131 481 start;
#X msg 2235 513 stop;
#X obj 2131 437 t b b;
#X obj 2207 546 env~;
#X floatatom 2207 587 5 0 0 0 - - -;
#X obj 2130 581 *~ 0;
#X msg 2124 753 start;
#X obj 1953 566 hsl 128 15 0 1 0 0 empty empty Volume_slider(0-1) -2
-8 0 10 -232576 -1 -1 0 1;
#X obj 1888 840 hsl 128 15 0 1 0 0 empty empty Volume_slider(0-1) -2
-8 0 10 -232576 -1 -1 0 1;
#X obj 2109 626 dac~;
#X obj 2138 129 bng 15 250 50 0 empty empty empty 17 7 0 10 -262144
-1 -1;
#X obj 2138 263 readsf~;
#X msg 2138 214 start;
#X msg 2242 246 stop;
#X obj 2138 170 t b b;
#X obj 2214 279 env~;
#X floatatom 2214 320 5 0 0 0 - - -;
#X obj 2137 314 *~ 0;
#X obj 1942 299 hsl 128 15 0 1 0 0 empty empty Volume_slider(0-1) -2
-8 0 10 -232576 -1 -1 0 1;
#X obj 2129 361 dac~;
#X floatatom 1798 223 5 0 0 0 - - -;
#X floatatom 1861 283 5 0 0 0 - - -;
#X obj 1785 266 spigot;
#X floatatom 1865 472 5 0 0 0 - - -;
#X floatatom 1853 550 5 0 0 0 - - -;
#X obj 1853 517 spigot;
#X floatatom 1795 733 5 0 0 0 - - -;
#X floatatom 1784 824 5 0 0 0 - - -;
#X obj 1784 786 spigot;
#X text 1721 176 is it 3;
#X text 1794 197 if true = 1 \, if false = 0;
#X text 1940 243 takes input. If 1 play sound if 0 no sound;
#X text 1760 369 1 = player is right of goal. Play left speaker 2 =
player is left of goal. Play right speaker 3 = player is same position
as goal. Play both speakers;
#X msg 2219 454 open seagulls.wav;
#X msg 2233 187 open seagulls.wav;
#X msg 2283 722 open seagulls.wav;
#X msg 1022 210 open 77695.wav;
#X msg 1008 477 open 77695.wav;
#X msg 1072 745 open 77695.wav;
#X obj 1717 716 == 4;
#X obj 1775 455 == 5;
#X obj 1722 206 == 6;
#X connect 7 0 2 0;
#X connect 7 1 3 0;
#X connect 7 2 4 0;
#X connect 7 3 5 0;
#X connect 7 4 6 0;
#X connect 8 0 38 0;
#X connect 8 0 40 0;
#X connect 8 0 39 0;
#X connect 8 0 116 0;
#X connect 8 0 117 0;
#X connect 8 0 118 0;
#X connect 14 0 16 0;
#X connect 15 0 14 1;
#X connect 17 0 8 0;
#X connect 17 1 10 0;
#X connect 17 2 7 0;
#X connect 17 3 9 0;
#X connect 18 0 65 0;
#X connect 19 0 22 0;
#X connect 20 0 23 0;
#X connect 20 0 25 0;
#X connect 20 1 19 0;
#X connect 21 0 20 0;
#X connect 22 0 34 0;
#X connect 22 1 115 0;
#X connect 23 0 24 0;
#X connect 25 0 0 0;
#X connect 26 0 30 0;
#X connect 27 0 31 0;
#X connect 27 0 33 0;
#X connect 27 1 26 0;
#X connect 28 0 27 0;
#X connect 29 0 27 0;
#X connect 30 0 28 0;
#X connect 30 1 114 0;
#X connect 31 0 32 0;
#X connect 33 0 37 1;
#X connect 34 0 20 0;
#X connect 35 0 33 1;
#X connect 36 0 25 1;
#X connect 38 0 57 0;
#X connect 39 0 54 0;
#X connect 40 0 51 0;
#X connect 41 0 45 0;
#X connect 42 0 46 0;
#X connect 42 0 48 0;
#X connect 42 1 41 0;
#X connect 43 0 42 0;
#X connect 44 0 42 0;
#X connect 45 0 43 0;
#X connect 45 1 113 0;
#X connect 46 0 47 0;
#X connect 48 0 50 1;
#X connect 48 0 50 0;
#X connect 49 0 48 1;
#X connect 51 0 53 0;
#X connect 51 0 53 1;
#X connect 52 0 49 0;
#X connect 53 0 52 0;
#X connect 54 0 56 0;
#X connect 54 0 56 1;
#X connect 55 0 35 0;
#X connect 56 0 55 0;
#X connect 57 0 59 0;
#X connect 57 0 59 1;
#X connect 58 0 36 0;
#X connect 59 0 58 0;
#X connect 64 0 65 0;
#X connect 65 0 14 0;
#X connect 65 1 17 0;
#X connect 68 0 71 0;
#X connect 69 0 72 0;
#X connect 69 0 74 0;
#X connect 69 1 68 0;
#X connect 70 0 69 0;
#X connect 71 0 83 0;
#X connect 71 1 112 0;
#X connect 72 0 73 0;
#X connect 74 0 66 0;
#X connect 75 0 79 0;
#X connect 76 0 80 0;
#X connect 76 0 82 0;
#X connect 76 1 75 0;
#X connect 77 0 76 0;
#X connect 78 0 76 0;
#X connect 79 0 77 0;
#X connect 79 1 110 0;
#X connect 80 0 81 0;
#X connect 82 0 86 1;
#X connect 83 0 69 0;
#X connect 84 0 82 1;
#X connect 85 0 74 1;
#X connect 87 0 91 0;
#X connect 88 0 92 0;
#X connect 88 0 94 0;
#X connect 88 1 87 0;
#X connect 89 0 88 0;
#X connect 90 0 88 0;
#X connect 91 0 89 0;
#X connect 91 1 111 0;
#X connect 92 0 93 0;
#X connect 94 0 96 1;
#X connect 94 0 96 0;
#X connect 95 0 94 1;
#X connect 97 0 99 0;
#X connect 97 0 99 1;
#X connect 98 0 95 0;
#X connect 99 0 98 0;
#X connect 100 0 102 0;
#X connect 100 0 102 1;
#X connect 101 0 84 0;
#X connect 102 0 101 0;
#X connect 103 0 105 0;
#X connect 103 0 105 1;
#X connect 104 0 85 0;
#X connect 105 0 104 0;
#X connect 110 0 76 0;
#X connect 111 0 88 0;
#X connect 112 0 69 0;
#X connect 113 0 42 0;
#X connect 114 0 27 0;
#X connect 115 0 20 0;
#X connect 116 0 103 0;
#X connect 117 0 100 0;
#X connect 118 0 97 0;
