#N canvas -9 -9 1920 978 10;
#X declare -lib mrpeach;
#X declare -lib mrpeach;
#X obj 438 863 dac~;
#X obj 40 739 import mrpeach;
#X floatatom 281 685 3 0 0 0 - - -;
#X floatatom 308 685 3 0 0 0 - - -;
#X floatatom 335 685 3 0 0 0 - - -;
#X floatatom 362 685 3 0 0 0 - - -;
#X floatatom 389 686 5 0 0 0 - - -;
#X obj 281 659 unpack 0 0 0 0 0;
#X floatatom 160 606 9 0 0 0 - - -;
#X obj 343 633 tgl 15 0 empty empty empty 17 7 0 10 -4034 -1 -1 0 1
;
#X floatatom 220 632 9 0 0 0 - - -;
#X text 53 606 bytes received:;
#X text 68 630 total bytes received:;
#X text 238 684 from:;
#X obj 41 675 spigot;
#X obj 101 651 tgl 15 0 empty empty enable_print: -77 8 0 10 -4034
-1 -1 0 1;
#X obj 41 700 print received;
#X obj 160 573 route received total from multicast;
#X msg 41 486 status;
#X obj 437 819 *~ 0;
#X obj 436 767 == 1;
#X obj 539 768 == 3;
#X text 538 738 is it 3;
#X obj 597 854 dac~;
#X floatatom 797 824 5 0 0 0 - - -;
#X obj 597 805 *~ 0;
#X obj 826 280 bng 15 250 50 0 empty empty empty 17 7 0 10 -262144
-1 -1;
#X obj 826 414 readsf~;
#X msg 826 365 start;
#X msg 930 397 stop;
#X obj 826 321 t b b;
#X obj 902 430 env~;
#X floatatom 902 471 5 0 0 0 - - -;
#X obj 700 812 *~ 0;
#X obj 692 859 dac~;
#X msg 914 338 open seagulls.wav;
#X obj 597 767 == 4;
#X obj 699 766 == 6;
#X obj 826 907 dac~;
#X obj 801 857 *~;
#X obj 875 862 *~;
#X obj 843 779 osc~;
#X obj 830 727 hsl 128 15 0 1 0 0 empty empty empty -2 -8 0 10 -262144
-1 -1 0 1;
#X floatatom 870 831 5 0 0 0 - - -;
#X obj 915 763 - 1;
#X obj 910 797 * -1;
#X floatatom 488 469 5 0 0 0 - - -;
#X obj 517 552 dac~;
#X obj 492 502 *~;
#X obj 569 502 *~;
#X obj 535 379 hsl 128 15 0 1 0 0 empty empty empty -2 -8 0 10 -262144
-1 -1 0 1;
#X floatatom 564 471 5 0 0 0 - - -;
#X obj 488 423 sqrt $f1;
#X obj 564 421 expr sqrt(1-$f1);
#X obj 493 866 dac~;
#X obj 491 766 == 2;
#X obj 548 816 *~ 0;
#X obj 540 863 dac~;
#X obj 1251 307 bng 15 250 50 0 empty empty empty 17 7 0 10 -262144
-1 -1;
#X obj 1241 549 dac~;
#X obj 1251 445 readsf~;
#X obj 1251 348 t b b;
#X obj 1327 461 env~;
#X floatatom 1327 502 5 0 0 0 - - -;
#X obj 1250 496 *~ 0;
#X obj 1401 479 / 5;
#X msg 1368 384 open 77695.wav;
#X msg 1355 428 0;
#X msg 1251 396 start;
#X text 1196 308 if <3;
#X obj 493 815 *~ 0;
#X obj 620 563 vu 15 120 empty empty -1 -8 0 10 -66577 -1 1 0;
#X obj 619 519 pvu~;
#X obj 434 560 vu 15 120 empty empty -1 -8 0 10 -66577 -1 1 0;
#X obj 433 519 pvu~;
#X msg 52 525 port 2222;
#X obj 41 556 udpreceive 2222;
#X floatatom 462 363 5 0 0 0 - - -;
#X obj 386 346 / 180;
#X obj 60 278 import mrpeach;
#X floatatom 301 224 3 0 0 0 - - -;
#X floatatom 328 224 3 0 0 0 - - -;
#X floatatom 355 224 3 0 0 0 - - -;
#X obj 301 198 unpack 0 0 0 0 0;
#X floatatom 180 145 9 0 0 0 - - -;
#X obj 363 172 tgl 15 0 empty empty empty 17 7 0 10 -4034 -1 -1 0 1
;
#X floatatom 240 171 9 0 0 0 - - -;
#X text 73 145 bytes received:;
#X text 88 169 total bytes received:;
#X text 258 223 from:;
#X obj 61 214 spigot;
#X obj 121 190 tgl 15 0 empty empty enable_print: -77 8 0 10 -4034
-1 -1 0 1;
#X obj 61 239 print received;
#X obj 180 112 route received total from multicast;
#X msg 61 25 status;
#X msg 72 64 port 2222;
#X obj 61 95 udpreceive 2222;
#X obj 627 136 moses 4;
#X obj 1402 794 readsf~;
#X obj 1402 687 bng 15 250 50 0 empty empty empty 17 7 0 10 -262144
-1 -1;
#X obj 1402 719 t b b;
#X msg 1402 754 start;
#X msg 1472 777 stop;
#X obj 1393 884 dac~;
#X msg 1467 745 open friends_short.wav;
#X text 1398 658 Receiced a friendrequest;
#X obj 1235 937 hsl 128 15 0 10 0 0 empty empty empty -2 -8 0 10 -204800
-1 -1 0 1;
#X floatatom 1232 975 5 0 0 0 - - -;
#X text 1271 978 set to 2;
#X obj 1639 700 vsl 15 128 0 1000 0 0 empty empty empty 0 -9 0 10 -262130
-1 -1 0 1;
#X floatatom 1683 831 5 0 0 0 - - -;
#X obj 1449 868 env~;
#X floatatom 1449 906 5 0 0 0 - - -;
#X obj 1248 670 moses 1;
#X floatatom 1248 640 5 0 0 0 - - -;
#X floatatom 1287 729 5 0 0 0 - - -;
#X obj 1251 612 hsl 128 15 0 1 0 0 empty empty empty -2 -8 0 10 -191407
-1 -1 0 1;
#X obj 1681 608 dac~;
#X text 1243 592 Slider (no friends/friends);
#X text 1439 831 Low pass filter;
#X text 1623 934 send data;
#X obj 1603 954 s notification;
#X text 1668 887 0 = Nothing happened on fb!;
#X text 1669 904 1 = You have gotten a notification!;
#X text 1684 849 set to 500;
#X msg 1712 667 500;
#X obj 1401 831 lop~ 500;
#X msg 1629 895 0;
#X obj 1158 731 s notification;
#X connect 7 0 2 0;
#X connect 7 1 3 0;
#X connect 7 2 4 0;
#X connect 7 3 5 0;
#X connect 7 4 6 0;
#X connect 8 0 78 0;
#X connect 14 0 16 0;
#X connect 15 0 14 1;
#X connect 17 0 8 0;
#X connect 17 1 10 0;
#X connect 17 2 7 0;
#X connect 17 3 9 0;
#X connect 18 0 76 0;
#X connect 19 0 0 0;
#X connect 24 0 39 1;
#X connect 25 0 23 0;
#X connect 26 0 30 0;
#X connect 27 0 31 0;
#X connect 27 0 48 0;
#X connect 27 0 49 0;
#X connect 27 1 26 0;
#X connect 28 0 27 0;
#X connect 29 0 27 0;
#X connect 30 0 28 0;
#X connect 30 1 35 0;
#X connect 31 0 32 0;
#X connect 33 0 34 1;
#X connect 33 0 34 0;
#X connect 35 0 27 0;
#X connect 39 0 38 0;
#X connect 40 0 38 1;
#X connect 41 0 39 0;
#X connect 41 0 40 0;
#X connect 42 0 24 0;
#X connect 42 0 44 0;
#X connect 43 0 40 1;
#X connect 44 0 45 0;
#X connect 45 0 43 0;
#X connect 46 0 48 1;
#X connect 48 0 47 0;
#X connect 48 0 74 0;
#X connect 49 0 47 1;
#X connect 49 0 72 0;
#X connect 50 0 52 0;
#X connect 50 0 53 0;
#X connect 51 0 49 1;
#X connect 52 0 46 0;
#X connect 53 0 51 0;
#X connect 56 0 57 1;
#X connect 56 0 57 0;
#X connect 58 0 61 0;
#X connect 60 0 62 0;
#X connect 60 0 64 0;
#X connect 60 0 48 0;
#X connect 60 0 49 0;
#X connect 60 1 58 0;
#X connect 61 0 68 0;
#X connect 61 1 66 0;
#X connect 62 0 63 0;
#X connect 64 0 59 1;
#X connect 64 0 59 0;
#X connect 65 0 64 1;
#X connect 66 0 60 0;
#X connect 67 0 60 0;
#X connect 68 0 60 0;
#X connect 70 0 54 1;
#X connect 72 0 71 0;
#X connect 74 0 73 0;
#X connect 75 0 76 0;
#X connect 76 0 14 0;
#X connect 76 1 17 0;
#X connect 77 0 50 0;
#X connect 78 0 77 0;
#X connect 83 0 80 0;
#X connect 83 1 81 0;
#X connect 83 2 82 0;
#X connect 84 0 97 0;
#X connect 90 0 92 0;
#X connect 91 0 90 1;
#X connect 93 0 84 0;
#X connect 93 1 86 0;
#X connect 93 2 83 0;
#X connect 93 3 85 0;
#X connect 94 0 96 0;
#X connect 95 0 96 0;
#X connect 96 0 90 0;
#X connect 96 1 93 0;
#X connect 98 0 126 0;
#X connect 99 0 100 0;
#X connect 100 0 101 0;
#X connect 100 1 104 0;
#X connect 101 0 98 0;
#X connect 102 0 98 0;
#X connect 104 0 98 0;
#X connect 106 0 107 0;
#X connect 109 0 110 0;
#X connect 109 0 126 1;
#X connect 111 0 112 0;
#X connect 113 1 115 0;
#X connect 113 1 99 0;
#X connect 114 0 113 0;
#X connect 116 0 114 0;
#X connect 125 0 109 0;
#X connect 126 0 103 0;
#X connect 126 0 103 1;
#X connect 126 0 111 0;
#X connect 127 0 121 0;
