#N canvas -9 -9 1920 978 10;
#X declare -lib mrpeach;
#X obj 913 920 dac~;
#X obj 40 739 import mrpeach;
#X floatatom 281 685 3 0 0 0 - - -;
#X floatatom 308 685 3 0 0 0 - - -;
#X floatatom 335 685 3 0 0 0 - - -;
#X floatatom 362 685 3 0 0 0 - - -;
#X floatatom 389 686 5 0 0 0 - - -;
#X obj 281 659 unpack 0 0 0 0 0;
#X floatatom 160 606 9 0 0 0 - - -;
#X obj 343 633 tgl 15 0 empty empty empty 17 7 0 10 -4034 -1 -1 0 1
;
#X floatatom 220 632 9 0 0 0 - - -;
#X text 53 606 bytes received:;
#X text 68 630 total bytes received:;
#X text 238 684 from:;
#X obj 41 675 spigot;
#X obj 101 651 tgl 15 0 empty empty enable_print: -77 8 0 10 -4034
-1 -1 0 1;
#X obj 41 700 print received;
#X obj 160 573 route received total from multicast;
#X msg 41 486 status;
#X msg 52 525 port 2222;
#X obj 41 556 udpreceive 2222;
#X obj 913 687 bng 15 250 50 0 empty empty empty 17 7 0 10 -262144
-1 -1;
#X obj 913 825 readsf~;
#X msg 1017 808 stop;
#X obj 913 728 t b b;
#X obj 989 841 env~;
#X floatatom 989 882 5 0 0 0 - - -;
#X obj 912 876 *~ 0;
#X obj 920 419 bng 15 250 50 0 empty empty empty 17 7 0 10 -262144
-1 -1;
#X obj 920 553 readsf~;
#X msg 920 504 start;
#X msg 1024 536 stop;
#X obj 920 460 t b b;
#X obj 996 569 env~;
#X floatatom 996 610 5 0 0 0 - - -;
#X obj 919 604 *~ 0;
#X msg 913 776 start;
#X obj 742 589 hsl 128 15 0 1 0 0 empty empty Volume_slider(0-1) -2
-8 0 10 -232576 -1 -1 0 1;
#X obj 677 863 hsl 128 15 0 1 0 0 empty empty Volume_slider(0-1) -2
-8 0 10 -232576 -1 -1 12700 1;
#X obj 898 649 dac~;
#X obj 506 739 == 1;
#X obj 564 478 == 2;
#X obj 511 229 == 3;
#X obj 927 152 bng 15 250 50 0 empty empty empty 17 7 0 10 -262144
-1 -1;
#X obj 927 286 readsf~;
#X msg 927 237 start;
#X msg 1031 269 stop;
#X obj 927 193 t b b;
#X obj 1178 304 env~;
#X floatatom 1178 345 5 0 0 0 - - -;
#X obj 926 337 *~ 0;
#X obj 947 385 dac~;
#X floatatom 587 246 5 0 0 0 - - -;
#X floatatom 650 306 5 0 0 0 - - -;
#X obj 574 289 spigot;
#X floatatom 654 495 5 0 0 0 - - -;
#X floatatom 642 573 5 0 0 0 - - -;
#X obj 642 540 spigot;
#X floatatom 584 756 5 0 0 0 - - -;
#X floatatom 573 847 5 0 0 0 - - -;
#X obj 573 809 spigot;
#X text 510 199 is it 3;
#X text 583 220 if true = 1 \, if false = 0;
#X text 729 266 takes input. If 1 play sound if 0 no sound;
#X text 390 405 1 = player is right of goal. Play left speaker 2 =
player is left of goal. Play right speaker 3 = player is same position
as goal. Play both speakers;
#X msg 1008 477 open seagulls.wav;
#X msg 1022 210 open seagulls.wav;
#X msg 1072 745 open seagulls.wav;
#X obj 33 48 inlet~;
#X obj 244 58 inlet;
#X obj 33 332 outlet~;
#X obj 91 332 outlet~;
#X text 40 352 left;
#X text 94 352 right;
#X obj 244 134 expr if($f1 > 0 \, $f1 \, 0);
#X obj 244 115 expr if($f1 < 1 \, $f1 \, 1);
#X text 257 101 filter so 0 < f < 1;
#X text 96 378 (C) Copyright 2004 Hans-Christoph Steiner;
#X text 187 392 released under the GNU GPL;
#X obj 33 273 pan_core~;
#X obj 319 54 loadbang;
#X msg 319 74 0.5;
#X obj 90 249 sqrt;
#X obj 60 168 expr sqrt(1 - $f1);
#X text 20 27 [square_root_pan~];
#X obj 979 336 *~ 0;
#X floatatom 763 364 5 0 0 0 - - -;
#X floatatom 702 366 5 0 0 0 - - -;
#X text 826 344;
#X obj 721 322 hsl 128 15 0 1 0 0 empty empty Volume_slider(0-1) -2
-8 0 10 -232576 -1 -1 0 1;
#X obj 773 392 expr sqrt(1 - $f1);
#X obj 784 449 sqrt;
#X connect 7 0 2 0;
#X connect 7 1 3 0;
#X connect 7 2 4 0;
#X connect 7 3 5 0;
#X connect 7 4 6 0;
#X connect 8 0 40 0;
#X connect 8 0 42 0;
#X connect 8 0 41 0;
#X connect 14 0 16 0;
#X connect 15 0 14 1;
#X connect 17 0 8 0;
#X connect 17 1 10 0;
#X connect 17 2 7 0;
#X connect 17 3 9 0;
#X connect 18 0 20 0;
#X connect 19 0 20 0;
#X connect 20 0 14 0;
#X connect 20 1 17 0;
#X connect 21 0 24 0;
#X connect 22 0 25 0;
#X connect 22 0 27 0;
#X connect 22 1 21 0;
#X connect 23 0 22 0;
#X connect 24 0 36 0;
#X connect 24 1 67 0;
#X connect 25 0 26 0;
#X connect 27 0 0 0;
#X connect 28 0 32 0;
#X connect 29 0 33 0;
#X connect 29 0 35 0;
#X connect 29 1 28 0;
#X connect 30 0 29 0;
#X connect 31 0 29 0;
#X connect 32 0 30 0;
#X connect 32 1 65 0;
#X connect 33 0 34 0;
#X connect 35 0 39 1;
#X connect 36 0 22 0;
#X connect 37 0 35 1;
#X connect 38 0 27 1;
#X connect 40 0 58 0;
#X connect 41 0 55 0;
#X connect 42 0 52 0;
#X connect 43 0 47 0;
#X connect 44 0 48 0;
#X connect 44 0 50 0;
#X connect 44 0 85 0;
#X connect 44 1 43 0;
#X connect 45 0 44 0;
#X connect 46 0 44 0;
#X connect 47 0 45 0;
#X connect 47 1 66 0;
#X connect 48 0 49 0;
#X connect 50 0 51 0;
#X connect 52 0 54 0;
#X connect 52 0 54 1;
#X connect 53 0 89 0;
#X connect 54 0 53 0;
#X connect 55 0 57 0;
#X connect 55 0 57 1;
#X connect 56 0 37 0;
#X connect 57 0 56 0;
#X connect 58 0 60 0;
#X connect 58 0 60 1;
#X connect 59 0 38 0;
#X connect 60 0 59 0;
#X connect 65 0 29 0;
#X connect 66 0 44 0;
#X connect 67 0 22 0;
#X connect 68 0 79 0;
#X connect 69 0 75 0;
#X connect 74 0 82 0;
#X connect 74 0 83 0;
#X connect 75 0 74 0;
#X connect 79 0 70 0;
#X connect 79 1 71 0;
#X connect 80 0 81 0;
#X connect 81 0 75 0;
#X connect 82 0 79 2;
#X connect 83 0 79 1;
#X connect 85 0 51 1;
#X connect 86 0 90 0;
#X connect 87 0 91 0;
#X connect 89 0 87 0;
#X connect 89 0 86 0;
#X connect 90 0 50 1;
#X connect 91 0 85 1;
