#N canvas -9 -9 1920 978 10;
#X declare -lib mrpeach;
#X declare -lib mrpeach;
#X obj 40 739 import mrpeach;
#X floatatom 281 685 3 0 0 0 - - -;
#X floatatom 308 685 3 0 0 0 - - -;
#X floatatom 335 685 3 0 0 0 - - -;
#X floatatom 362 685 3 0 0 0 - - -;
#X floatatom 389 686 5 0 0 0 - - -;
#X obj 281 659 unpack 0 0 0 0 0;
#X floatatom 160 606 9 0 0 0 - - -;
#X obj 343 633 tgl 15 0 empty empty empty 17 7 0 10 -4034 -1 -1 0 1
;
#X floatatom 220 632 9 0 0 0 - - -;
#X text 53 606 bytes received:;
#X text 68 630 total bytes received:;
#X text 238 684 from:;
#X obj 41 675 spigot;
#X obj 101 651 tgl 15 0 empty empty enable_print: -77 8 0 10 -4034
-1 -1 0 1;
#X obj 41 700 print received;
#X obj 160 573 route received total from multicast;
#X msg 41 486 status;
#X obj 826 280 bng 15 250 50 0 empty empty empty 17 7 0 10 -262144
-1 -1;
#X obj 826 414 readsf~;
#X msg 826 365 start;
#X msg 930 397 stop;
#X obj 826 321 t b b;
#X obj 902 430 env~;
#X floatatom 902 471 5 0 0 0 - - -;
#X floatatom 488 469 5 0 0 0 - - -;
#X obj 517 552 dac~;
#X obj 492 502 *~;
#X obj 635 504 *~;
#X obj 535 379 hsl 128 15 0 1 0 0 empty empty empty -2 -8 0 10 -262144
-1 -1 0 1;
#X floatatom 630 473 5 0 0 0 - - -;
#X obj 1251 307 bng 15 250 50 0 empty empty empty 17 7 0 10 -262144
-1 -1;
#X obj 1251 445 readsf~;
#X obj 1251 348 t b b;
#X obj 1327 461 env~;
#X floatatom 1327 502 5 0 0 0 - - -;
#X msg 1251 396 start;
#X text 1196 308 if <3;
#X obj 686 565 vu 15 120 empty empty -1 -8 0 10 -66577 -1 1 0;
#X obj 685 521 pvu~;
#X obj 434 560 vu 15 120 empty empty -1 -8 0 10 -66577 -1 1 0;
#X obj 433 519 pvu~;
#X floatatom 344 359 5 0 0 0 - - -;
#X obj 291 342 / 180;
#X obj 60 278 import mrpeach;
#X floatatom 301 224 3 0 0 0 - - -;
#X floatatom 328 224 3 0 0 0 - - -;
#X floatatom 355 224 3 0 0 0 - - -;
#X obj 301 198 unpack 0 0 0 0 0;
#X floatatom 180 145 9 0 0 0 - - -;
#X obj 363 172 tgl 15 0 empty empty empty 17 7 0 10 -4034 -1 -1 0 1
;
#X floatatom 240 171 9 0 0 0 - - -;
#X text 73 145 bytes received:;
#X text 88 169 total bytes received:;
#X text 258 223 from:;
#X obj 61 214 spigot;
#X obj 121 190 tgl 15 0 empty empty enable_print: -77 8 0 10 -4034
-1 -1 0 1;
#X obj 61 239 print received;
#X obj 180 112 route received total from multicast;
#X msg 61 25 status;
#X obj 61 95 udpreceive 3333;
#X msg 72 64 port 3333;
#X obj 344 404 s volume;
#X obj 532 330 r volume;
#X msg 914 338 open 77695.wav;
#X obj 522 205 bng 15 250 50 0 empty empty empty 17 7 0 10 -262144
-1 -1;
#X floatatom 579 285 5 0 0 0 - - -;
#X obj 579 252 + 1;
#X obj 522 253 i;
#X msg 585 215 0;
#X obj 1036 201 moses 4;
#X msg 1355 428 0;
#X obj 567 162 moses 4;
#X obj 630 423 sqrt $f1;
#X obj 488 418 expr sqrt(1-$f1);
#X obj 41 556 udpreceive 2222;
#X msg 52 525 port 2222;
#X msg 1368 384 open seagulls3.wav;
#X connect 6 0 1 0;
#X connect 6 1 2 0;
#X connect 6 2 3 0;
#X connect 6 3 4 0;
#X connect 6 4 5 0;
#X connect 7 0 43 0;
#X connect 13 0 15 0;
#X connect 14 0 13 1;
#X connect 16 0 7 0;
#X connect 16 1 9 0;
#X connect 16 2 6 0;
#X connect 16 3 8 0;
#X connect 17 0 75 0;
#X connect 18 0 22 0;
#X connect 19 0 23 0;
#X connect 19 0 27 0;
#X connect 19 0 28 0;
#X connect 19 1 18 0;
#X connect 20 0 19 0;
#X connect 21 0 19 0;
#X connect 22 0 20 0;
#X connect 22 1 64 0;
#X connect 23 0 24 0;
#X connect 25 0 27 1;
#X connect 27 0 26 0;
#X connect 27 0 41 0;
#X connect 28 0 26 1;
#X connect 28 0 39 0;
#X connect 29 0 73 0;
#X connect 29 0 74 0;
#X connect 30 0 28 1;
#X connect 31 0 33 0;
#X connect 32 0 34 0;
#X connect 32 0 27 0;
#X connect 32 0 28 0;
#X connect 32 1 31 0;
#X connect 33 0 36 0;
#X connect 33 1 77 0;
#X connect 34 0 35 0;
#X connect 36 0 32 0;
#X connect 39 0 38 0;
#X connect 41 0 40 0;
#X connect 42 0 62 0;
#X connect 43 0 42 0;
#X connect 48 0 45 0;
#X connect 48 1 46 0;
#X connect 48 2 47 0;
#X connect 49 0 72 0;
#X connect 55 0 57 0;
#X connect 56 0 55 1;
#X connect 58 0 49 0;
#X connect 58 1 51 0;
#X connect 58 2 48 0;
#X connect 58 3 50 0;
#X connect 59 0 60 0;
#X connect 60 0 55 0;
#X connect 60 1 58 0;
#X connect 61 0 60 0;
#X connect 63 0 29 0;
#X connect 64 0 19 0;
#X connect 65 0 68 0;
#X connect 66 0 70 0;
#X connect 67 0 68 1;
#X connect 67 0 66 0;
#X connect 68 0 67 0;
#X connect 69 0 68 1;
#X connect 70 0 31 0;
#X connect 71 0 32 0;
#X connect 72 1 21 0;
#X connect 72 1 65 0;
#X connect 73 0 30 0;
#X connect 74 0 25 0;
#X connect 75 0 13 0;
#X connect 75 1 16 0;
#X connect 76 0 75 0;
#X connect 77 0 32 0;
